{
  "accessors": [
    {
      "bufferView": 2,
      "componentType": 5126,
      "count": 65532,
      "max": [
        6.2520751953125,
        0.41765299439430237,
        18.218521118164063
      ],
      "min": [
        -11.777209281921387,
        -9.299290657043457,
        -10.499726295471191
      ],
      "type": "VEC3"
    },
    {
      "bufferView": 2,
      "byteOffset": 786384,
      "componentType": 5126,
      "count": 65532,
      "max": [
        0.9999883770942688,
        0.9983477592468262,
        0.9998652338981628
      ],
      "min": [
        -0.9999203681945801,
        -0.9999970197677612,
        -0.9997603297233582
      ],
      "type": "VEC3"
    },
    {
      "bufferView": 3,
      "componentType": 5126,
      "count": 65532,
      "max": [
        0.7529411911964417,
        0.7529411911964417,
        0.7529411911964417,
        1.0
      ],
      "min": [
        0.7529411911964417,
        0.7529411911964417,
        0.7529411911964417,
        1.0
      ],
      "type": "VEC4"
    },
    {
      "bufferView": 1,
      "componentType": 5126,
      "count": 65532,
      "max": [
        0.9987789988517761,
        0.9987720251083374
      ],
      "min": [
        0.0012209999840706587,
        0.0012280000373721123
      ],
      "type": "VEC2"
    },
    {
      "bufferView": 0,
      "componentType": 5125,
      "count": 330231,
      "type": "SCALAR"
    },
    {
      "bufferView": 2,
      "byteOffset": 1572768,
      "componentType": 5126,
      "count": 27176,
      "max": [
        2.7362730503082275,
        0.4111819863319397,
        8.0195951461792
      ],
      "min": [
        -5.228394031524658,
        -9.800864219665527,
        -10.60219955444336
      ],
      "type": "VEC3"
    },
    {
      "bufferView": 2,
      "byteOffset": 1898880,
      "componentType": 5126,
      "count": 27176,
      "max": [
        0.9999162554740906,
        0.9980095028877258,
        0.9991135001182556
      ],
      "min": [
        -0.9993096590042114,
        -0.9999434947967529,
        -0.9997603297233582
      ],
      "type": "VEC3"
    },
    {
      "bufferView": 3,
      "byteOffset": 1048512,
      "componentType": 5126,
      "count": 27176,
      "max": [
        0.7529411911964417,
        0.7529411911964417,
        0.7529411911964417,
        1.0
      ],
      "min": [
        0.7529411911964417,
        0.7529411911964417,
        0.7529411911964417,
        1.0
      ],
      "type": "VEC4"
    },
    {
      "bufferView": 1,
      "byteOffset": 524256,
      "componentType": 5126,
      "count": 27176,
      "max": [
        0.9987789988517761,
        0.9987720251083374
      ],
      "min": [
        0.0012209999840706587,
        0.0012280000373721123
      ],
      "type": "VEC2"
    },
    {
      "bufferView": 0,
      "byteOffset": 1320924,
      "componentType": 5125,
      "count": 131004,
      "type": "SCALAR"
    },
    {
      "bufferView": 2,
      "byteOffset": 2224992,
      "componentType": 5126,
      "count": 77,
      "max": [
        -2.5872340202331543,
        -2.9358789920806885,
        12.678940773010254
      ],
      "min": [
        -7.378626823425293,
        -5.14202880859375,
        -0.5481879711151123
      ],
      "type": "VEC3"
    },
    {
      "bufferView": 2,
      "byteOffset": 2225916,
      "componentType": 5126,
      "count": 77,
      "max": [
        0.02497101202607155,
        0.6398149728775024,
        0.8803238868713379
      ],
      "min": [
        -0.9982127547264099,
        -0.9983744621276855,
        -0.14914406836032867
      ],
      "type": "VEC3"
    },
    {
      "bufferView": 3,
      "byteOffset": 1483328,
      "componentType": 5126,
      "count": 77,
      "max": [
        0.7529411911964417,
        0.7529411911964417,
        0.7529411911964417,
        1.0
      ],
      "min": [
        0.7529411911964417,
        0.7529411911964417,
        0.7529411911964417,
        1.0
      ],
      "type": "VEC4"
    },
    {
      "bufferView": 1,
      "byteOffset": 741664,
      "componentType": 5126,
      "count": 77,
      "max": [
        0.5,
        0.5
      ],
      "min": [
        0.5,
        0.5
      ],
      "type": "VEC2"
    },
    {
      "bufferView": 0,
      "byteOffset": 1844940,
      "componentType": 5125,
      "count": 213,
      "type": "SCALAR"
    }
  ],
  "asset": {
    "extras": {
      "author": "alban (https://sketchfab.com/alban)",
      "license": "CC-BY-4.0 (http://creativecommons.org/licenses/by/4.0/)",
      "source": "https://sketchfab.com/3d-models/salmon-tartine-b6dd89dadb104bfba43fc399477e5a3c",
      "title": "Salmon tartine"
    },
    "generator": "Sketchfab-12.65.0",
    "version": "2.0"
  },
  "bufferViews": [
    {
      "buffer": 0,
      "byteLength": 1845792,
      "name": "floatBufferViews",
      "target": 34963
    },
    {
      "buffer": 0,
      "byteLength": 742280,
      "byteOffset": 1845792,
      "byteStride": 8,
      "name": "floatBufferViews",
      "target": 34962
    },
    {
      "buffer": 0,
      "byteLength": 2226840,
      "byteOffset": 2588072,
      "byteStride": 12,
      "name": "floatBufferViews",
      "target": 34962
    },
    {
      "buffer": 0,
      "byteLength": 1484560,
      "byteOffset": 4814912,
      "byteStride": 16,
      "name": "floatBufferViews",
      "target": 34962
    }
  ],
  "buffers": [
    {
      "byteLength": 6299472,
      "uri": "scene.bin"
    }
  ],
  "images": [
    {
      "uri": "textures/material_0_baseColor.jpeg"
    }
  ],
  "materials": [
    {
      "doubleSided": true,
      "name": "material_0",
      "pbrMetallicRoughness": {
        "baseColorTexture": {
          "index": 0
        },
        "metallicFactor": 0.0
      }
    },
    {
      "doubleSided": true,
      "name": "material_1",
      "pbrMetallicRoughness": {
        "baseColorFactor": [
          0.2019088656,
          0.082941871,
          0.0119385815,
          1.0
        ],
        "metallicFactor": 0.0
      }
    }
  ],
  "meshes": [
    {
      "name": "Object_0",
      "primitives": [
        {
          "attributes": {
            "COLOR_0": 2,
            "NORMAL": 1,
            "POSITION": 0,
            "TEXCOORD_0": 3
          },
          "indices": 4,
          "material": 0,
          "mode": 4
        }
      ]
    },
    {
      "name": "Object_1",
      "primitives": [
        {
          "attributes": {
            "COLOR_0": 7,
            "NORMAL": 6,
            "POSITION": 5,
            "TEXCOORD_0": 8
          },
          "indices": 9,
          "material": 0,
          "mode": 4
        }
      ]
    },
    {
      "name": "Object_2",
      "primitives": [
        {
          "attributes": {
            "COLOR_0": 12,
            "NORMAL": 11,
            "POSITION": 10,
            "TEXCOORD_0": 13
          },
          "indices": 14,
          "material": 1,
          "mode": 4
        }
      ]
    }
  ],
  "nodes": [
    {
      "children": [
        1
      ],
      "matrix": [
        0.011273734182772888,
        0.0005567299354904964,
        3.57421576978834e-06,
        0.0,
        0.0005547423159118214,
        -0.011239158373549163,
        0.0008835344736045611,
        0.0,
        4.713731981461494e-05,
        -0.0008822833442609343,
        -0.01125284014612804,
        0.0,
        0.20664313435554504,
        -0.33111014962196544,
        8.757883071899414,
        1.0
      ],
      "name": "Sketchfab_model"
    },
    {
      "children": [
        2,
        3,
        4
      ],
      "name": "mesh.obj.cleaner.materialmerger.gles"
    },
    {
      "mesh": 0,
      "name": "Object_2"
    },
    {
      "mesh": 1,
      "name": "Object_3"
    },
    {
      "mesh": 2,
      "name": "Object_4"
    }
  ],
  "samplers": [
    {
      "magFilter": 9729,
      "minFilter": 9987,
      "wrapS": 10497,
      "wrapT": 10497
    }
  ],
  "scene": 0,
  "scenes": [
    {
      "name": "Sketchfab_Scene",
      "nodes": [
        0
      ]
    }
  ],
  "textures": [
    {
      "sampler": 0,
      "source": 0
    }
  ]
}
